<svg width="18" height="19" viewBox="0 0 18 19" fill="none" xmlns="http://www.w3.org/2000/svg">
<path d="M1 9.5C1 13.9184 4.5816 17.5 9 17.5C13.4184 17.5 17 13.9184 17 9.5C17 5.0816 13.4184 1.5 9 1.5C4.5816 1.5 1 5.0816 1 9.5Z" stroke="#25313C" stroke-width="1.05543" stroke-linecap="round" stroke-linejoin="round"/>
<path d="M9.74706 1.5C9.74706 1.5 11.9883 4.67588 11.9883 9.5C11.9883 14.3241 9.74706 17.5 9.74706 17.5M8.25293 17.5C8.25293 17.5 6.01174 14.3241 6.01174 9.5C6.01174 4.67588 8.25293 1.5 8.25293 1.5M2 12.3141H16M2 6.68593H16" stroke="#25313C" stroke-width="1.05543" stroke-linecap="round" stroke-linejoin="round"/>
</svg>
