<svg width="22" height="22" viewBox="0 0 22 22" fill="none" xmlns="http://www.w3.org/2000/svg">
<path fill-rule="evenodd" clip-rule="evenodd" d="M16.223 13.2011H16.9773L21.0259 17.2688C21.4174 17.6603 21.4174 18.3001 21.0259 18.6915C20.6344 19.083 19.9947 19.083 19.6032 18.6915L15.545 14.6334V13.8791L15.2872 13.6117C13.9504 14.7575 12.1267 15.3495 10.1883 15.0249C7.53379 14.5761 5.41401 12.3608 5.08936 9.68724C4.59283 5.64819 7.99212 2.2489 12.0312 2.74542C14.7048 3.07007 16.92 5.18986 17.3688 7.84436C17.6935 9.78272 17.1015 11.6065 15.9556 12.9433L16.223 13.2011ZM6.95117 8.9041C6.95117 11.2817 8.87044 13.201 11.248 13.201C13.6256 13.201 15.5449 11.2817 15.5449 8.9041C15.5449 6.5265 13.6256 4.60724 11.248 4.60724C8.87044 4.60724 6.95117 6.5265 6.95117 8.9041Z" fill="#25313C"/>
</svg>
