<svg width="9" height="11" viewBox="0 0 9 11" fill="none" xmlns="http://www.w3.org/2000/svg">
<path d="M4.2758 5.31716C4.55593 5.31716 4.79582 5.21733 4.99548 5.01768C5.1948 4.81836 5.29446 4.57863 5.29446 4.2985C5.29446 4.01837 5.1948 3.77848 4.99548 3.57882C4.79582 3.37951 4.55593 3.27985 4.2758 3.27985C3.99567 3.27985 3.75594 3.37951 3.55663 3.57882C3.35697 3.77848 3.25714 4.01837 3.25714 4.2985C3.25714 4.57863 3.35697 4.81836 3.55663 5.01768C3.75594 5.21733 3.99567 5.31716 4.2758 5.31716ZM4.2758 9.06072C5.31143 8.10998 6.07967 7.24616 6.58051 6.46926C7.08135 5.69271 7.33177 5.00307 7.33177 4.40037C7.33177 3.47509 7.0367 2.71738 6.44656 2.12724C5.85675 1.53743 5.13317 1.24253 4.2758 1.24253C3.41843 1.24253 2.69467 1.53743 2.10453 2.12724C1.51473 2.71738 1.21983 3.47509 1.21983 4.40037C1.21983 5.00307 1.47025 5.69271 1.97109 6.46926C2.47193 7.24616 3.24016 8.10998 4.2758 9.06072ZM4.2758 10.2194C4.20789 10.2194 4.13998 10.2067 4.07207 10.1812C4.00416 10.1558 3.94474 10.1218 3.8938 10.0794C2.65444 8.98432 1.72916 7.96788 1.11796 7.03003C0.506769 6.09185 0.201172 5.21529 0.201172 4.40037C0.201172 3.12705 0.610842 2.11264 1.43018 1.35713C2.24918 0.601629 3.19772 0.223877 4.2758 0.223877C5.35388 0.223877 6.30242 0.601629 7.12142 1.35713C7.94076 2.11264 8.35043 3.12705 8.35043 4.40037C8.35043 5.21529 8.04483 6.09185 7.43364 7.03003C6.82244 7.96788 5.89716 8.98432 4.6578 10.0794C4.60686 10.1218 4.54744 10.1558 4.47953 10.1812C4.41162 10.2067 4.34371 10.2194 4.2758 10.2194Z" fill="#9E9E9E"/>
</svg>
