<svg width="10" height="11" viewBox="0 0 10 11" fill="none" xmlns="http://www.w3.org/2000/svg">
<path d="M5.05314 5.31716C5.33327 5.31716 5.57317 5.21733 5.77282 5.01768C5.97214 4.81836 6.0718 4.57863 6.0718 4.2985C6.0718 4.01837 5.97214 3.77848 5.77282 3.57882C5.57317 3.37951 5.33327 3.27985 5.05314 3.27985C4.77301 3.27985 4.53329 3.37951 4.33397 3.57882C4.13431 3.77848 4.03449 4.01837 4.03449 4.2985C4.03449 4.57863 4.13431 4.81836 4.33397 5.01768C4.53329 5.21733 4.77301 5.31716 5.05314 5.31716ZM5.05314 9.06072C6.08878 8.10998 6.85701 7.24616 7.35785 6.46926C7.85869 5.69271 8.10911 5.00307 8.10911 4.40037C8.10911 3.47509 7.81404 2.71738 7.2239 2.12724C6.6341 1.53743 5.91051 1.24253 5.05314 1.24253C4.19577 1.24253 3.47202 1.53743 2.88188 2.12724C2.29207 2.71738 1.99717 3.47509 1.99717 4.40037C1.99717 5.00307 2.24759 5.69271 2.74843 6.46926C3.24927 7.24616 4.01751 8.10998 5.05314 9.06072ZM5.05314 10.2194C4.98523 10.2194 4.91732 10.2067 4.84941 10.1812C4.7815 10.1558 4.72208 10.1218 4.67115 10.0794C3.43178 8.98432 2.5065 7.96788 1.89531 7.03003C1.28411 6.09185 0.978516 5.21529 0.978516 4.40037C0.978516 3.12705 1.38819 2.11264 2.20753 1.35713C3.02653 0.601629 3.97506 0.223877 5.05314 0.223877C6.13122 0.223877 7.07976 0.601629 7.89876 1.35713C8.7181 2.11264 9.12777 3.12705 9.12777 4.40037C9.12777 5.21529 8.82217 6.09185 8.21098 7.03003C7.59978 7.96788 6.6745 8.98432 5.43514 10.0794C5.38421 10.1218 5.32478 10.1558 5.25687 10.1812C5.18896 10.2067 5.12105 10.2194 5.05314 10.2194Z" fill="#9E9E9E"/>
</svg>
