<svg width="12" height="12" viewBox="0 0 12 12" fill="none" xmlns="http://www.w3.org/2000/svg">
<path d="M10.5 1.2H8.7V0.3C8.7 0.220435 8.66839 0.144129 8.61213 0.087868C8.55587 0.0316071 8.47957 0 8.4 0C8.32044 0 8.24413 0.0316071 8.18787 0.087868C8.13161 0.144129 8.1 0.220435 8.1 0.3V1.2H3.9V0.3C3.9 0.220435 3.86839 0.144129 3.81213 0.087868C3.75587 0.0316071 3.67957 0 3.6 0C3.52044 0 3.44413 0.0316071 3.38787 0.087868C3.33161 0.144129 3.3 0.220435 3.3 0.3V1.2H1.5C1.10232 1.20048 0.721067 1.35866 0.439866 1.63987C0.158665 1.92107 0.000476357 2.30232 0 2.7V10.5C0.000476357 10.8977 0.158665 11.2789 0.439866 11.5601C0.721067 11.8413 1.10232 11.9995 1.5 12H10.5C10.8977 11.9997 11.2791 11.8415 11.5603 11.5603C11.8415 11.2791 11.9997 10.8977 12 10.5V2.7C11.9997 2.30227 11.8415 1.92093 11.5603 1.63969C11.2791 1.35846 10.8977 1.20032 10.5 1.2ZM11.4 10.5C11.4 10.7387 11.3052 10.9676 11.1364 11.1364C10.9676 11.3052 10.7387 11.4 10.5 11.4H1.5C1.26131 11.4 1.03239 11.3052 0.863604 11.1364C0.694821 10.9676 0.6 10.7387 0.6 10.5V5.4H11.4V10.5ZM11.4 4.8H0.6V2.7C0.6 2.2032 1.002 1.8 1.5 1.8H3.3V2.7C3.3 2.77957 3.33161 2.85587 3.38787 2.91213C3.44413 2.96839 3.52044 3 3.6 3C3.67957 3 3.75587 2.96839 3.81213 2.91213C3.86839 2.85587 3.9 2.77957 3.9 2.7V1.8H8.1V2.7C8.1 2.77957 8.13161 2.85587 8.18787 2.91213C8.24413 2.96839 8.32044 3 8.4 3C8.47957 3 8.55587 2.96839 8.61213 2.91213C8.66839 2.85587 8.7 2.77957 8.7 2.7V1.8H10.5C10.7387 1.8 10.9676 1.89482 11.1364 2.0636C11.3052 2.23239 11.4 2.46131 11.4 2.7V4.8Z" fill="#707070"/>
</svg>
