<svg width="11" height="12" viewBox="0 0 11 12" fill="none" xmlns="http://www.w3.org/2000/svg">
<path d="M5.4 4.03637C4.31509 4.03637 3.43636 4.9151 3.43636 6.00001C3.43636 7.08492 4.31509 7.96364 5.4 7.96364C6.48491 7.96364 7.36364 7.08492 7.36364 6.00001C7.36364 4.9151 6.48491 4.03637 5.4 4.03637ZM9.78873 5.5091C9.67753 4.51359 9.23113 3.58549 8.52282 2.87718C7.81452 2.16888 6.88641 1.72248 5.89091 1.61128V0.600006H4.90909V1.61128C3.91359 1.72248 2.98548 2.16888 2.27718 2.87718C1.56887 3.58549 1.12247 4.51359 1.01127 5.5091H0V6.49092H1.01127C1.12247 7.48642 1.56887 8.41452 2.27718 9.12283C2.98548 9.83114 3.91359 10.2775 4.90909 10.3887V11.4H5.89091V10.3887C6.88641 10.2775 7.81452 9.83114 8.52282 9.12283C9.23113 8.41452 9.67753 7.48642 9.78873 6.49092H10.8V5.5091H9.78873ZM5.4 9.43637C3.50018 9.43637 1.96364 7.89982 1.96364 6.00001C1.96364 4.10019 3.50018 2.56364 5.4 2.56364C7.29982 2.56364 8.83636 4.10019 8.83636 6.00001C8.83636 7.89982 7.29982 9.43637 5.4 9.43637Z" fill="#2E75FF"/>
</svg>
