<svg width="9" height="11" viewBox="0 0 9 11" fill="none" xmlns="http://www.w3.org/2000/svg">
<path d="M4.70939 5.31716C4.98952 5.31716 5.22942 5.21733 5.42907 5.01768C5.62839 4.81836 5.72805 4.57863 5.72805 4.2985C5.72805 4.01837 5.62839 3.77848 5.42907 3.57882C5.22942 3.37951 4.98952 3.27985 4.70939 3.27985C4.42926 3.27985 4.18954 3.37951 3.99022 3.57882C3.79056 3.77848 3.69074 4.01837 3.69074 4.2985C3.69074 4.57863 3.79056 4.81836 3.99022 5.01768C4.18954 5.21733 4.42926 5.31716 4.70939 5.31716ZM4.70939 9.06072C5.74503 8.10998 6.51326 7.24616 7.0141 6.46926C7.51494 5.69271 7.76536 5.00307 7.76536 4.40037C7.76536 3.47509 7.47029 2.71738 6.88015 2.12724C6.29035 1.53743 5.56676 1.24253 4.70939 1.24253C3.85202 1.24253 3.12827 1.53743 2.53813 2.12724C1.94832 2.71738 1.65342 3.47509 1.65342 4.40037C1.65342 5.00307 1.90384 5.69271 2.40468 6.46926C2.90552 7.24616 3.67376 8.10998 4.70939 9.06072ZM4.70939 10.2194C4.64148 10.2194 4.57357 10.2067 4.50566 10.1812C4.43775 10.1558 4.37833 10.1218 4.3274 10.0794C3.08803 8.98432 2.16275 7.96788 1.55156 7.03003C0.940363 6.09185 0.634766 5.21529 0.634766 4.40037C0.634766 3.12705 1.04444 2.11264 1.86378 1.35713C2.68278 0.601629 3.63131 0.223877 4.70939 0.223877C5.78747 0.223877 6.73601 0.601629 7.55501 1.35713C8.37435 2.11264 8.78402 3.12705 8.78402 4.40037C8.78402 5.21529 8.47842 6.09185 7.86723 7.03003C7.25603 7.96788 6.33075 8.98432 5.09139 10.0794C5.04046 10.1218 4.98103 10.1558 4.91312 10.1812C4.84521 10.2067 4.7773 10.2194 4.70939 10.2194Z" fill="#9E9E9E"/>
</svg>
