<svg width="9" height="11" viewBox="0 0 9 11" fill="none" xmlns="http://www.w3.org/2000/svg">
<path d="M4.91887 5.31716C5.199 5.31716 5.43889 5.21733 5.63855 5.01768C5.83786 4.81836 5.93752 4.57863 5.93752 4.2985C5.93752 4.01837 5.83786 3.77848 5.63855 3.57882C5.43889 3.37951 5.199 3.27985 4.91887 3.27985C4.63873 3.27985 4.39901 3.37951 4.19969 3.57882C4.00004 3.77848 3.90021 4.01837 3.90021 4.2985C3.90021 4.57863 4.00004 4.81836 4.19969 5.01768C4.39901 5.21733 4.63873 5.31716 4.91887 5.31716ZM4.91887 9.06072C5.9545 8.10998 6.72274 7.24616 7.22358 6.46926C7.72442 5.69271 7.97484 5.00307 7.97484 4.40037C7.97484 3.47509 7.67976 2.71738 7.08962 2.12724C6.49982 1.53743 5.77623 1.24253 4.91887 1.24253C4.0615 1.24253 3.33774 1.53743 2.7476 2.12724C2.1578 2.71738 1.8629 3.47509 1.8629 4.40037C1.8629 5.00307 2.11331 5.69271 2.61415 6.46926C3.11499 7.24616 3.88323 8.10998 4.91887 9.06072ZM4.91887 10.2194C4.85095 10.2194 4.78304 10.2067 4.71513 10.1812C4.64722 10.1558 4.5878 10.1218 4.53687 10.0794C3.2975 8.98432 2.37222 7.96788 1.76103 7.03003C1.14984 6.09185 0.844238 5.21529 0.844238 4.40037C0.844238 3.12705 1.25391 2.11264 2.07325 1.35713C2.89225 0.601629 3.84079 0.223877 4.91887 0.223877C5.99694 0.223877 6.94548 0.601629 7.76448 1.35713C8.58382 2.11264 8.99349 3.12705 8.99349 4.40037C8.99349 5.21529 8.6879 6.09185 8.0767 7.03003C7.46551 7.96788 6.54023 8.98432 5.30086 10.0794C5.24993 10.1218 5.19051 10.1558 5.1226 10.1812C5.05469 10.2067 4.98678 10.2194 4.91887 10.2194Z" fill="#9E9E9E"/>
</svg>
