<svg width="10" height="11" viewBox="0 0 10 11" fill="none" xmlns="http://www.w3.org/2000/svg">
<path d="M4.93303 5.31716C5.21316 5.31716 5.45305 5.21733 5.65271 5.01768C5.85202 4.81836 5.95168 4.57863 5.95168 4.2985C5.95168 4.01837 5.85202 3.77848 5.65271 3.57882C5.45305 3.37951 5.21316 3.27985 4.93303 3.27985C4.65289 3.27985 4.41317 3.37951 4.21385 3.57882C4.0142 3.77848 3.91437 4.01837 3.91437 4.2985C3.91437 4.57863 4.0142 4.81836 4.21385 5.01768C4.41317 5.21733 4.65289 5.31716 4.93303 5.31716ZM4.93303 9.06072C5.96866 8.10998 6.7369 7.24616 7.23774 6.46926C7.73858 5.69271 7.989 5.00307 7.989 4.40037C7.989 3.47509 7.69392 2.71738 7.10378 2.12724C6.51398 1.53743 5.79039 1.24253 4.93303 1.24253C4.07566 1.24253 3.3519 1.53743 2.76176 2.12724C2.17196 2.71738 1.87706 3.47509 1.87706 4.40037C1.87706 5.00307 2.12747 5.69271 2.62831 6.46926C3.12915 7.24616 3.89739 8.10998 4.93303 9.06072ZM4.93303 10.2194C4.86511 10.2194 4.7972 10.2067 4.72929 10.1812C4.66138 10.1558 4.60196 10.1218 4.55103 10.0794C3.31166 8.98432 2.38638 7.96788 1.77519 7.03003C1.164 6.09185 0.858398 5.21529 0.858398 4.40037C0.858398 3.12705 1.26807 2.11264 2.08741 1.35713C2.90641 0.601629 3.85495 0.223877 4.93303 0.223877C6.0111 0.223877 6.95964 0.601629 7.77864 1.35713C8.59798 2.11264 9.00765 3.12705 9.00765 4.40037C9.00765 5.21529 8.70206 6.09185 8.09086 7.03003C7.47967 7.96788 6.55439 8.98432 5.31502 10.0794C5.26409 10.1218 5.20467 10.1558 5.13676 10.1812C5.06885 10.2067 5.00094 10.2194 4.93303 10.2194Z" fill="#9E9E9E"/>
</svg>
