<svg width="9" height="11" viewBox="0 0 9 11" fill="none" xmlns="http://www.w3.org/2000/svg">
<path d="M4.71721 5.31716C4.99734 5.31716 5.23723 5.21733 5.43689 5.01768C5.6362 4.81836 5.73586 4.57863 5.73586 4.2985C5.73586 4.01837 5.6362 3.77848 5.43689 3.57882C5.23723 3.37951 4.99734 3.27985 4.71721 3.27985C4.43707 3.27985 4.19735 3.37951 3.99803 3.57882C3.79838 3.77848 3.69855 4.01837 3.69855 4.2985C3.69855 4.57863 3.79838 4.81836 3.99803 5.01768C4.19735 5.21733 4.43707 5.31716 4.71721 5.31716ZM4.71721 9.06072C5.75284 8.10998 6.52108 7.24616 7.02192 6.46926C7.52276 5.69271 7.77318 5.00307 7.77318 4.40037C7.77318 3.47509 7.4781 2.71738 6.88796 2.12724C6.29816 1.53743 5.57457 1.24253 4.71721 1.24253C3.85984 1.24253 3.13608 1.53743 2.54594 2.12724C1.95614 2.71738 1.66123 3.47509 1.66123 4.40037C1.66123 5.00307 1.91165 5.69271 2.41249 6.46926C2.91333 7.24616 3.68157 8.10998 4.71721 9.06072ZM4.71721 10.2194C4.64929 10.2194 4.58138 10.2067 4.51347 10.1812C4.44556 10.1558 4.38614 10.1218 4.33521 10.0794C3.09584 8.98432 2.17056 7.96788 1.55937 7.03003C0.948175 6.09185 0.642578 5.21529 0.642578 4.40037C0.642578 3.12705 1.05225 2.11264 1.87159 1.35713C2.69059 0.601629 3.63913 0.223877 4.71721 0.223877C5.79528 0.223877 6.74382 0.601629 7.56282 1.35713C8.38216 2.11264 8.79183 3.12705 8.79183 4.40037C8.79183 5.21529 8.48624 6.09185 7.87504 7.03003C7.26385 7.96788 6.33857 8.98432 5.0992 10.0794C5.04827 10.1218 4.98885 10.1558 4.92094 10.1812C4.85303 10.2067 4.78512 10.2194 4.71721 10.2194Z" fill="#9E9E9E"/>
</svg>
